<?xml version="1.0" encoding="UTF-8"?>
<svg width="317px" height="88px" viewBox="0 0 317 88" version="1.1" xmlns="http://www.w3.org/2000/svg" xmlns:xlink="http://www.w3.org/1999/xlink">
    <!-- Generator: Sketch 52.5 (67469) - http://www.bohemiancoding.com/sketch -->
    <title>button/clapp/home</title>
    <desc>Created with Sketch.</desc>
    <defs>
        <rect id="path-1" x="0" y="0" width="279" height="48" rx="24"></rect>
        <filter x="-11.6%" y="-57.3%" width="123.3%" height="235.4%" filterUnits="objectBoundingBox" id="filter-2">
            <feOffset dx="0" dy="5" in="SourceAlpha" result="shadowOffsetOuter1"></feOffset>
            <feGaussianBlur stdDeviation="10" in="shadowOffsetOuter1" result="shadowBlurOuter1"></feGaussianBlur>
            <feColorMatrix values="0 0 0 0 0.0117647061   0 0 0 0 0.0431372561   0 0 0 0 0.235294119  0 0 0 0.5 0" type="matrix" in="shadowBlurOuter1"></feColorMatrix>
        </filter>
    </defs>
    <g id="Export-Symbols-and-Components" stroke="none" stroke-width="1" fill="none" fill-rule="evenodd">
        <g id="Symbols-and-Components" transform="translate(-87.000000, -157.000000)">
            <g id="button/clapp/home" transform="translate(106.000000, 172.000000)">
                <g id="Rectangle">
                    <use fill="black" fill-opacity="1" filter="url(#filter-2)" xlink:href="#path-1"></use>
                    <use fill="#FFFFFF" fill-rule="evenodd" xlink:href="#path-1"></use>
                </g>
                <text id="Reparte-tus-Clapps…" font-family="Karla-Bold, Karla" font-size="16" font-weight="bold" fill="#037DF9">
                    <tspan x="40.236" y="29">Reparte tus Clapps</tspan>
                    <tspan x="184.764" y="29" font-family="LucidaGrande-Bold, Lucida Grande">…</tspan>
                </text>
                <g id="icon/clap2" transform="translate(215.000000, 12.000000)" stroke="#037DF9" stroke-linecap="round" stroke-width="1">
                    <path d="M19.2752744,9.93103448 L13.7285645,13.5113195 C13.3788212,13.7371389 12.9139281,13.6323365 12.6910448,13.277986 C12.5969732,13.1284944 12.5614524,12.9604151 12.5797983,12.7966862 C12.582921,12.7361777 12.5965829,12.6756692 12.6184418,12.6195109 L12.6871414,12.3066859 C12.6949482,12.2884938 12.7011936,12.2683243 12.706268,12.2457819 C12.8538159,11.5710921 12.4342021,10.903521 11.7682846,10.7544249 C11.1047092,10.6033513 10.4458178,11.0284929 10.2982699,11.7027871 C10.2939762,11.7217702 10.2892921,11.7443126 10.2865597,11.7656685 L8.53315926,15.9890048 C8.5315979,15.9969145 8.53315926,15.9890048 8.53315926,15.9890048 C8.12642655,17.8497406 8.0518719,19.0104759 9.45006436,21.2338673 C10.6761175,23.1835862 13.2289312,23.7590103 15.1529096,22.516806 L23.1724138,17.3399662" id="Stroke-21"></path>
                    <path d="M23.1724138,14.0689655 L16.5517241,18.2068966" id="Stroke-23"></path>
                    <path d="M21.5172414,11.5862069 L14.8965517,15.7241379" id="Stroke-25"></path>
                    <path d="M11.5862069,5.79310345 L6.16130359,9.37877805 C5.81921665,9.60493736 5.36411884,9.49997726 5.14649657,9.1450933 C5.05448435,8.99537664 5.01974114,8.8270444 5.03768543,8.663069 C5.04073978,8.6024694 5.05410255,8.5418698 5.07548299,8.48562703 L5.14229684,8.17233103 C5.15031451,8.15411155 5.15604141,8.13391168 5.16100472,8.11133535 C5.30570444,7.43562997 4.89489468,6.76705395 4.24393683,6.61733728 C3.59450615,6.46643238 2.95042058,6.89221391 2.80610265,7.56752322 C2.80190292,7.58653486 2.79693961,7.60911119 2.79464884,7.63049928 L1.07925082,11.8605893 C1.07810544,11.8681147 1.07925082,11.8605893 1.07925082,11.8605893 C0.681422032,13.72373 0.60849948,14.8862126 1.97608366,17.112951 C3.17529693,19.0656049 5.51454547,19.4395005 7.12991361,18.6421999" id="Stroke-27"></path>
                    <path d="M15.7241379,9.93103448 L13.2413793,11.5862069" id="Stroke-29"></path>
                    <path d="M14.0689655,7.44827586 L7.44827586,11.5862069" id="Stroke-31"></path>
                    <path d="M23.1724138,6.62068966 L21.5172414,7.44827586" id="Stroke-33"></path>
                    <path d="M20.6896552,2.48275862 L19.862069,3.31034483" id="Stroke-35"></path>
                    <path d="M15.7241379,2.48275862 L16.5517241,0.827586207" id="Stroke-37"></path>
                </g>
            </g>
        </g>
    </g>
</svg>