<?xml version="1.0" encoding="UTF-8"?>
<svg width="24px" height="24px" viewBox="0 0 24 24" version="1.1" xmlns="http://www.w3.org/2000/svg" xmlns:xlink="http://www.w3.org/1999/xlink">
    <!-- Generator: Sketch 52.5 (67469) - http://www.bohemiancoding.com/sketch -->
    <title>icon/clap2/blanco</title>
    <desc>Created with Sketch.</desc>
    <g id="Export-Symbols-and-Components" stroke="none" stroke-width="1" fill="none" fill-rule="evenodd" stroke-linecap="round">
        <g id="Symbols-and-Components" transform="translate(-106.000000, -3255.000000)" stroke="#FFFFFF">
            <g id="icon/clap2/blanco" transform="translate(106.000000, 3255.000000)">
                <g id="Group-6" transform="translate(0.827586, 0.827586)">
                    <path d="M18.4476882,9.10344828 L12.9009783,12.6837333 C12.551235,12.9095526 12.0863419,12.8047503 11.8634586,12.4503998 C11.769387,12.3009082 11.7338662,12.1328289 11.7522121,11.9691 C11.7553348,11.9085915 11.7689967,11.848083 11.7908556,11.7919247 L11.8595552,11.4790997 C11.867362,11.4609076 11.8736074,11.4407381 11.8786818,11.4181957 C12.0262297,10.7435059 11.6066159,10.0759348 10.9406984,9.92683869 C10.277123,9.77576513 9.61823162,10.2009067 9.47068368,10.8752009 C9.46638995,10.894184 9.46170589,10.9167264 9.45897352,10.9380823 L7.70557305,15.1614186 C7.70401169,15.1693282 7.70557305,15.1614186 7.70557305,15.1614186 C7.29884035,17.0221544 7.2242857,18.1828897 8.62247815,20.4062811 C9.84853133,22.356 12.401345,22.9314241 14.3253234,21.6892198 L22.3448276,16.51238" id="Stroke-21"></path>
                    <path d="M22.3448276,13.2413793 L15.7241379,17.3793103" id="Stroke-23"></path>
                    <path d="M20.6896552,10.7586207 L14.0689655,14.8965517" id="Stroke-25"></path>
                    <path d="M10.7586207,4.96551724 L5.33371739,8.55119184 C4.99163044,8.77735115 4.53653264,8.67239105 4.31891036,8.3175071 C4.22689814,8.16779043 4.19215493,7.9994582 4.21009923,7.8354828 C4.21315358,7.77488319 4.22651635,7.71428359 4.24789678,7.65804082 L4.31471064,7.34474483 C4.3227283,7.32652534 4.3284552,7.30632547 4.33341852,7.28374915 C4.47811824,6.60804376 4.06730847,5.93946774 3.41635062,5.78975107 C2.76691994,5.63884617 2.12283437,6.0646277 1.97851644,6.73993702 C1.97431671,6.75894866 1.9693534,6.78152498 1.96706264,6.80291308 L0.251664612,11.0330031 C0.250519232,11.0405285 0.251664612,11.0330031 0.251664612,11.0330031 C-0.146164175,12.8961438 -0.219086727,14.0586264 1.14849745,16.2853648 C2.34771072,18.2380187 4.68695926,18.6119143 6.3023274,17.8146137" id="Stroke-27"></path>
                    <path d="M14.8965517,9.10344828 L12.4137931,10.7586207" id="Stroke-29"></path>
                    <path d="M13.2413793,6.62068966 L6.62068966,10.7586207" id="Stroke-31"></path>
                    <path d="M22.3448276,5.79310345 L20.6896552,6.62068966" id="Stroke-33"></path>
                    <path d="M19.862069,1.65517241 L19.0344828,2.48275862" id="Stroke-35"></path>
                    <path d="M14.8965517,1.65517241 L15.7241379,0" id="Stroke-37"></path>
                </g>
            </g>
        </g>
    </g>
</svg>