<?xml version="1.0" encoding="UTF-8"?>
<svg width="20px" height="19px" viewBox="0 0 20 19" version="1.1" xmlns="http://www.w3.org/2000/svg" xmlns:xlink="http://www.w3.org/1999/xlink">
    <!-- Generator: Sketch 52.5 (67469) - http://www.bohemiancoding.com/sketch -->
    <title>icon/person/on</title>
    <desc>Created with Sketch.</desc>
    <g id="Export-Symbols-and-Components" stroke="none" stroke-width="1" fill="none" fill-rule="evenodd" stroke-linecap="round" stroke-linejoin="round">
        <g id="Symbols-and-Components" transform="translate(-152.000000, -3574.000000)" stroke="#037DF9">
            <g id="icon/person/on" transform="translate(150.000000, 3572.000000)">
                <path d="M16,14.336352 C15.2909091,15.5951412 14.3527273,16.3604183 12.6363636,16.8372576 C9.63636364,17.6708928 6,15.1958299 6,11.8354464 C6,7.66727041 9.63636364,6 12.3636364,6 C14.1818182,6 16,6.8336352 16,7.66727041" id="Stroke-1"></path>
                <path d="M16.3043478,6.84615385 C15.5217391,9.15384615 15.5718261,12.2453846 15.8332174,14.7076923 C16.3043478,19.1538462 19.4347826,16.8461538 20.2956522,15.2923077 C20.856,14.2815385 21,13.0692308 21,11.8461538 C21,10.6230769 20.7495652,9.46153846 20.2956522,8.4 C19.833913,7.34615385 19.1765217,6.39230769 18.3626087,5.59230769 C17.5486957,4.79230769 16.5782609,4.14615385 15.506087,3.69230769 C14.426087,3.24615385 13.2443478,3 12,3 C10.7556522,3 9.57391304,3.24615385 8.49391304,3.69230769 C7.42173913,4.14615385 6.45130435,4.79230769 5.6373913,5.59230769 C4.82347826,6.39230769 4.16608696,7.34615385 3.70434783,8.4 C3.25043478,9.46153846 3,10.6230769 3,11.8461538 C3,13.0692308 3.25043478,14.2307692 3.70434783,15.2923077 C4.16608696,16.3461538 4.82347826,17.3 5.6373913,18.1 C6.45130435,18.9 7.42173913,19.5461538 8.49391304,20" id="Stroke-3"></path>
            </g>
        </g>
    </g>
</svg>