<?xml version="1.0" encoding="UTF-8"?>
<svg width="123px" height="24px" viewBox="0 0 123 24" version="1.1" xmlns="http://www.w3.org/2000/svg" xmlns:xlink="http://www.w3.org/1999/xlink">
    <!-- Generator: Sketch 52.5 (67469) - http://www.bohemiancoding.com/sketch -->
    <title>logonew2/small</title>
    <desc>Created with Sketch.</desc>
    <defs>
        <polygon id="path-1" points="0.131733036 0.0366666667 1.81082696 0.0366666667 1.81082696 3.57738889 0.131733036 3.57738889"></polygon>
        <polygon id="path-3" points="0 0.0746428401 21.9398986 0.0746428401 21.9398986 22 0 22"></polygon>
    </defs>
    <g id="Export-Symbols-and-Components" stroke="none" stroke-width="1" fill="none" fill-rule="evenodd">
        <g id="Symbols-and-Components" transform="translate(-408.000000, -3788.000000)">
            <g id="logonew2/small" transform="translate(408.000000, 3788.000000)">
                <g id="Group-23">
                    <path d="M36.9157801,19.1553398 C35.9727837,18.592233 35.2511525,17.7834951 34.7508865,16.7281553 C34.250133,15.673301 34,14.4271845 34,12.9902913 C34,11.5533981 34.250133,10.3106796 34.7508865,9.26213592 C35.2511525,8.21359223 35.9727837,7.40776699 36.9157801,6.84466019 C37.858289,6.28106796 38.966578,6 40.2411348,6 C41.1119681,6 41.9413564,6.14563107 42.7278369,6.4368932 C43.5143174,6.72815534 44.1808511,7.14563107 44.7269504,7.68932039 C44.9093085,7.85776699 45,8.04514563 45,8.25242718 C45,8.39514563 44.9575798,8.51796117 44.873227,8.62135922 C44.7883865,8.72524272 44.6942819,8.77669903 44.5904255,8.77669903 C44.4602394,8.77669903 44.3105496,8.71165049 44.141844,8.58252427 C43.4397163,8.0131068 42.8024379,7.61796117 42.2304965,7.39805825 C41.658555,7.17815534 40.9890957,7.06796117 40.2216312,7.06796117 C38.6481826,7.06796117 37.429211,7.58592233 36.5647163,8.62135922 C35.699734,9.65728155 35.2677305,11.1135922 35.2677305,12.9902913 C35.2677305,14.8800971 35.699734,16.3432039 36.5647163,17.3786408 C37.429211,18.4145631 38.6481826,18.9320388 40.2216312,18.9320388 C40.9890957,18.9320388 41.658555,18.8218447 42.2304965,18.6019417 C42.8024379,18.3820388 43.4397163,17.9873786 44.141844,17.4174757 C44.3368794,17.2878641 44.4860816,17.223301 44.5904255,17.223301 C44.6942819,17.223301 44.7883865,17.2752427 44.873227,17.3786408 C44.9575798,17.4825243 45,17.6053398 45,17.7475728 C45,17.9543689 44.9093085,18.1427184 44.7269504,18.3106796 C44.1808511,18.8543689 43.5143174,19.2718447 42.7278369,19.5631068 C41.9413564,19.8538835 41.1119681,20 40.2411348,20 C38.966578,20 37.858289,19.7184466 36.9157801,19.1553398" id="Fill-1" fill="#037DF9"></path>
                    <path d="M51.1979167,19.8422535 C51.0661458,19.7372535 51,19.6061268 51,19.4478873 L51,6.63098592 C51,6.44711268 51.0588542,6.29626761 51.1776042,6.17746479 C51.2953125,6.05915493 51.4510417,6 51.6458333,6 C51.8546875,6 52.0135417,6.05619718 52.125,6.16809859 C52.2359375,6.27950704 52.2921875,6.43429577 52.2921875,6.63098592 L52.2921875,18.9352113 L59.4166667,18.9352113 C59.5973958,18.9352113 59.7395833,18.9815493 59.8442708,19.0732394 C59.9484375,19.1654225 60,19.2975352 60,19.4676056 C60,19.638662 59.9484375,19.7702817 59.8442708,19.8619718 C59.7395833,19.9546479 59.5973958,20 59.4166667,20 L51.6666667,20 C51.4864583,20 51.3302083,19.9477465 51.1979167,19.8422535" id="Fill-3" fill="#037DF9"></path>
                    <path d="M67.1156533,15.1705597 L73.8843467,15.1705597 L70.5101721,7.60378478 L67.1156533,15.1705597 Z M77,19.4916379 C77,19.6353479 76.9409519,19.7555951 76.8218634,19.8533571 C76.7022787,19.9506302 76.5633421,20 76.4050536,20 C76.2988664,20 76.1966487,19.9672497 76.0974083,19.9022381 C75.9976717,19.8372264 75.9217527,19.7453301 75.8691553,19.6285046 L74.3607008,16.2263887 L66.6591473,16.2263887 L65.1308447,19.6285046 C65.0122524,19.8763311 64.8266728,20 64.5755945,20 C64.4168098,20 64.2808504,19.9506302 64.1687087,19.8533571 C64.0560708,19.7555951 64,19.6285046 64,19.4720855 C64,19.380678 64.0129013,19.3093118 64.0396962,19.2565204 L69.834841,6.43064139 C69.9544257,6.14371007 70.1722585,6 70.4903241,6 C70.6357113,6 70.7706783,6.03910478 70.8967136,6.11731434 C71.0222528,6.19601271 71.1120653,6.300618 71.1646628,6.43064139 L76.9409519,19.2565204 C76.9806481,19.3352187 77,19.4134283 77,19.4916379 Z" id="Fill-5" fill="#037DF9"></path>
                    <path d="M87.2816265,13 C89.5973896,13 90.7555221,12.0012676 90.7555221,10.0028169 C90.7555221,8.03098592 89.5973896,7.04507042 87.2816265,7.04507042 L83.2454819,7.04507042 L83.2454819,13 L87.2816265,13 Z M82.1711847,19.8323944 C82.0572289,19.7209859 82,19.5661972 82,19.3690141 L82,6.61126761 C82,6.44021127 82.063755,6.29577465 82.1907631,6.17746479 C82.3182731,6.05915493 82.4754016,6 82.6631526,6 L87.3619478,6 C88.8343373,6 89.9754016,6.34852113 90.7851406,7.04507042 C91.5953815,7.74211268 92,8.72802817 92,10.0028169 C92,11.2914085 91.5918675,12.2871831 90.7756024,12.9901408 C89.9588353,13.6935915 88.8207831,14.0450704 87.3619478,14.0450704 L83.2454819,14.0450704 L83.2454819,19.3690141 C83.2454819,19.5661972 83.188253,19.7209859 83.0747992,19.8323944 C82.9608434,19.9438028 82.810241,20 82.622992,20 C82.435241,20 82.2846386,19.9438028 82.1711847,19.8323944 Z" id="Fill-7" fill="#037DF9"></path>
                    <path d="M103.281627,13 C105.59739,13 106.755522,12.0012676 106.755522,10.0028169 C106.755522,8.03098592 105.59739,7.04507042 103.281627,7.04507042 L99.2454819,7.04507042 L99.2454819,13 L103.281627,13 Z M98.1711847,19.8323944 C98.0572289,19.7209859 98,19.5661972 98,19.3690141 L98,6.61126761 C98,6.44021127 98.063755,6.29577465 98.1907631,6.17746479 C98.3182731,6.05915493 98.4754016,6 98.6631526,6 L103.361948,6 C104.834337,6 105.975402,6.34852113 106.785141,7.04507042 C107.595382,7.74211268 108,8.72802817 108,10.0028169 C108,11.2914085 107.591867,12.2871831 106.775602,12.9901408 C105.958835,13.6935915 104.820783,14.0450704 103.361948,14.0450704 L99.2454819,14.0450704 L99.2454819,19.3690141 C99.2454819,19.5661972 99.188253,19.7209859 99.0747992,19.8323944 C98.9608434,19.9438028 98.810241,20 98.622992,20 C98.435241,20 98.2846386,19.9438028 98.1711847,19.8323944 Z" id="Fill-9" fill="#037DF9"></path>
                    <path d="M122.482578,6 C122.622953,6 122.744164,6.05244914 122.84669,6.15685725 C122.948737,6.26175554 123,6.39263331 123,6.54900039 C123,6.69311299 122.954965,6.81712825 122.865854,6.92153636 L118.074913,13.235531 L118.074913,19.3720808 C118.074913,19.5554077 118.02365,19.7054025 117.921124,19.8230454 C117.819077,19.9406884 117.678702,20 117.5,20 C117.320819,20 117.177091,19.9406884 117.068815,19.8230454 C116.960061,19.7054025 116.905444,19.5554077 116.905444,19.3720808 L116.905444,13.1963167 L112.133667,6.92153636 C112.044556,6.81712825 112,6.69311299 112,6.54900039 C112,6.40537796 112.050784,6.27793144 112.152831,6.16715101 C112.255357,6.0558804 112.376568,6 112.517422,6 C112.683188,6 112.824042,6.07842863 112.939024,6.23528588 L117.5,12.2747803 L122.060976,6.23528588 C122.175479,6.07842863 122.316333,6 122.482578,6" id="Fill-11" fill="#037DF9"></path>
                    <path d="M20.6227995,9 C20.4212329,9 20.2226525,8.91841431 20.1032056,8.76766714 C19.9135837,8.52912217 19.9927172,8.20816323 20.2793898,8.05037567 L22.0347612,7.08542814 C22.3229268,6.92846887 22.7071476,6.99390308 22.8967695,7.23161976 C23.0863915,7.47057887 23.0072579,7.79153782 22.7210831,7.94932537 L20.9652139,8.9142729 C20.8597025,8.97225258 20.7402556,9 20.6227995,9" id="Fill-13" fill="#037DF9"></path>
                    <path d="M19.5052697,4 C19.3895565,4 19.2730341,3.94522751 19.1775505,3.83288801 C18.9651398,3.58305838 18.9396505,3.14208393 19.1209076,2.84810096 L20.1093251,1.24572612 C20.2901776,0.952302053 20.6094004,0.91597336 20.8222156,1.1674797 C21.0346263,1.41730933 21.0605201,1.85828378 20.8792631,2.15170785 L19.890441,3.75464159 C19.7905069,3.91672346 19.6484952,4 19.5052697,4" id="Fill-15" fill="#037DF9"></path>
                    <g id="Group-19" transform="translate(13.000000, 0.000000)">
                        <mask id="mask-2" fill="white">
                            <use xlink:href="#path-1"></use>
                        </mask>
                        <g id="Clip-18"></g>
                        <path d="M0.63148,3.57738889 C0.56468,3.57738889 0.49628,3.55905556 0.43108,3.51905556 C0.17828,3.36516667 0.06308,2.95572222 0.17388,2.60405556 L0.85308,0.452944444 C0.96348,0.102388889 1.25788,-0.0598333333 1.51148,0.0957222222 C1.76428,0.249611111 1.87948,0.659055556 1.76868,1.01072222 L1.08988,3.16183333 C1.00748,3.42238889 0.82388,3.57738889 0.63148,3.57738889" id="Fill-17" fill="#037DF9" mask="url(#mask-2)"></path>
                    </g>
                    <g id="Group-22" transform="translate(0.000000, 2.000000)">
                        <mask id="mask-4" fill="white">
                            <use xlink:href="#path-3"></use>
                        </mask>
                        <g id="Clip-21"></g>
                        <path d="M10.9428317,22 C8.57262593,22 6.27711152,21.2331687 4.35356008,19.7761893 C2.0172144,18.0074979 0.508946914,15.4336337 0.105115638,12.5286379 C-0.295727984,9.62762551 0.457160905,6.74354321 2.22535432,4.40669959 C3.99354774,2.06935802 6.56492222,0.561090535 9.46493868,0.160246914 C9.75972058,0.120411523 10.0609757,0.092526749 10.3891198,0.0755967078 C10.7456465,0.0566748971 11.0254901,0.321580247 11.0429181,0.664164609 C11.060844,1.00774486 10.7974325,1.30053498 10.4543502,1.31846091 C10.1610621,1.33389712 9.89267119,1.3582963 9.63374115,1.39315226 C4.32617325,2.12711934 0.604053909,7.04629218 1.33851893,12.3583416 C1.69604156,14.9336996 3.03351481,17.2162675 5.1044572,18.7837901 C7.17589753,20.3513128 9.72934609,21.0180576 12.3027123,20.660535 C17.49177,19.9434979 21.1571239,15.3026749 20.6472309,10.0941975 C20.6138687,9.75161317 20.8643337,9.44737037 21.2059222,9.41400823 C21.5475107,9.38114403 21.8527494,9.63011523 21.8866095,9.97269959 C22.461235,15.8489177 18.3268193,21.0852798 12.4735066,21.8934403 C11.9621198,21.9646461 11.4507329,22 10.9428317,22" id="Fill-20" fill="#037DF9" mask="url(#mask-4)"></path>
                    </g>
                </g>
            </g>
        </g>
    </g>
</svg>