<?xml version="1.0" encoding="UTF-8"?>
<svg width="282px" height="56px" viewBox="0 0 282 56" version="1.1" xmlns="http://www.w3.org/2000/svg" xmlns:xlink="http://www.w3.org/1999/xlink">
    <!-- Generator: Sketch 52.5 (67469) - http://www.bohemiancoding.com/sketch -->
    <title>logonew2/big</title>
    <desc>Created with Sketch.</desc>
    <defs>
        <polygon id="path-1" points="0.329332591 0.0733333333 4.52706741 0.0733333333 4.52706741 7.15477778 0.329332591 7.15477778"></polygon>
        <polygon id="path-3" points="0 0.173035675 50.860674 0.173035675 50.860674 51 0 51"></polygon>
    </defs>
    <g id="Export-Symbols-and-Components" stroke="none" stroke-width="1" fill="none" fill-rule="evenodd">
        <g id="Symbols-and-Components" transform="translate(-106.000000, -3788.000000)">
            <g id="logonew2/big" transform="translate(106.000000, 3788.000000)">
                <g id="Group-23">
                    <path d="M84.891844,45.0090153 C82.6629433,43.6816921 80.9572695,41.7753814 79.7748227,39.2877947 C78.5912234,36.8013523 78,33.8640777 78,30.4771151 C78,27.0901526 78.5912234,24.1608877 79.7748227,21.6893204 C80.9572695,19.2177531 82.6629433,17.3183079 84.891844,15.9909847 C87.1195922,14.6625173 89.7391844,14 92.751773,14 C94.8101064,14 96.7704787,14.3432732 98.6294326,15.0298197 C100.488387,15.7163662 102.06383,16.7004161 103.35461,17.9819695 C103.785638,18.3790222 104,18.8207004 104,19.3092926 C104,19.6457004 103.899734,19.9351942 103.700355,20.1789182 C103.499823,20.4237864 103.277394,20.5450763 103.031915,20.5450763 C102.724202,20.5450763 102.37039,20.3917476 101.971631,20.0873786 C100.312057,18.7451803 98.8057624,17.8137656 97.4539007,17.295423 C96.102039,16.7770804 94.5196809,16.517337 92.7056738,16.517337 C88.9866135,16.517337 86.1054078,17.7382455 84.0620567,20.1789182 C82.0175532,22.6207351 80.9964539,26.0534674 80.9964539,30.4771151 C80.9964539,34.9316574 82.0175532,38.3804092 84.0620567,40.8210818 C86.1054078,43.2628988 88.9866135,44.482663 92.7056738,44.482663 C94.5196809,44.482663 96.102039,44.2229196 97.4539007,43.704577 C98.8057624,43.1862344 100.312057,42.2559639 101.971631,40.9126214 C102.432624,40.6071082 102.785284,40.4549237 103.031915,40.4549237 C103.277394,40.4549237 103.499823,40.5773578 103.700355,40.8210818 C103.899734,41.0659501 104,41.3554438 104,41.6907074 C104,42.1781553 103.785638,42.6221221 103.35461,43.0180305 C102.06383,44.2995839 100.488387,45.2836338 98.6294326,45.9701803 C96.7704787,46.6555825 94.8101064,47 92.751773,47 C89.7391844,47 87.1195922,46.3363384 84.891844,45.0090153" id="Fill-1" fill="#FFFFFF"></path>
                    <path d="M117.439815,46.628169 C117.146991,46.380669 117,46.0715845 117,45.6985915 L117,15.4873239 C117,15.0539085 117.130787,14.6983451 117.394676,14.4183099 C117.65625,14.1394366 118.002315,14 118.435185,14 C118.899306,14 119.252315,14.1324648 119.5,14.3962324 C119.746528,14.658838 119.871528,15.0236972 119.871528,15.4873239 L119.871528,44.4901408 L135.703704,44.4901408 C136.105324,44.4901408 136.421296,44.5993662 136.653935,44.815493 C136.885417,45.0327817 137,45.3441901 137,45.7450704 C137,46.1482746 136.885417,46.4585211 136.653935,46.6746479 C136.421296,46.8930986 136.105324,47 135.703704,47 L118.481481,47 C118.081019,47 117.733796,46.876831 117.439815,46.628169" id="Fill-3" fill="#FFFFFF"></path>
                    <path d="M153.189969,35.6163193 L168.810031,35.6163193 L161.023474,17.7803498 L153.189969,35.6163193 Z M176,45.8017178 C176,46.140463 175.863735,46.4239028 175.588916,46.6543417 C175.312951,46.8836284 174.992328,47 174.627047,47 C174.381999,47 174.146112,46.922803 173.917096,46.7695611 C173.686935,46.6163193 173.511737,46.3997067 173.390358,46.1243323 L169.90931,38.1050592 L152.136494,38.1050592 L148.609642,46.1243323 C148.335967,46.7084948 147.907706,47 147.328295,47 C146.961869,47 146.648116,46.8836284 146.389328,46.6543417 C146.129394,46.4239028 146,46.1243323 146,45.75563 C146,45.5401697 146.029772,45.3719493 146.091607,45.2475123 L159.465018,15.0150833 C159.740982,14.3387452 160.243673,14 160.977671,14 C161.31318,14 161.624642,14.0921756 161.915493,14.2765267 C162.205199,14.46203 162.412458,14.7085996 162.533837,15.0150833 L175.863735,45.2475123 C175.955342,45.4330156 176,45.6173667 176,45.8017178 Z" id="Fill-5" fill="#FFFFFF"></path>
                    <path d="M200.147741,30.5 C205.473996,30.5 208.137701,28.1458451 208.137701,23.4352113 C208.137701,18.7873239 205.473996,16.4633803 200.147741,16.4633803 L190.864608,16.4633803 L190.864608,30.5 L200.147741,30.5 Z M188.393725,46.6049296 C188.131627,46.3423239 188,45.9774648 188,45.5126761 L188,15.4408451 C188,15.0376408 188.146637,14.6971831 188.438755,14.4183099 C188.732028,14.1394366 189.093424,14 189.525251,14 L200.33248,14 C203.718976,14 206.343424,14.8215141 208.205823,16.4633803 C210.069378,18.1064085 211,20.4303521 211,23.4352113 C211,26.4726056 210.061295,28.8197887 208.183886,30.4767606 C206.305321,32.1348944 203.687801,32.9633803 200.33248,32.9633803 L190.864608,32.9633803 L190.864608,45.5126761 C190.864608,45.9774648 190.732982,46.3423239 190.472038,46.6049296 C190.20994,46.8675352 189.863554,47 189.432882,47 C189.001054,47 188.654669,46.8675352 188.393725,46.6049296 Z" id="Fill-7" fill="#FFFFFF"></path>
                    <path d="M236.147741,30.5 C241.473996,30.5 244.137701,28.1458451 244.137701,23.4352113 C244.137701,18.7873239 241.473996,16.4633803 236.147741,16.4633803 L226.864608,16.4633803 L226.864608,30.5 L236.147741,30.5 Z M224.393725,46.6049296 C224.131627,46.3423239 224,45.9774648 224,45.5126761 L224,15.4408451 C224,15.0376408 224.146637,14.6971831 224.438755,14.4183099 C224.732028,14.1394366 225.093424,14 225.525251,14 L236.33248,14 C239.718976,14 242.343424,14.8215141 244.205823,16.4633803 C246.069378,18.1064085 247,20.4303521 247,23.4352113 C247,26.4726056 246.061295,28.8197887 244.183886,30.4767606 C242.305321,32.1348944 239.687801,32.9633803 236.33248,32.9633803 L226.864608,32.9633803 L226.864608,45.5126761 C226.864608,45.9774648 226.732982,46.3423239 226.472038,46.6049296 C226.20994,46.8675352 225.863554,47 225.432882,47 C225.001054,47 224.654669,46.8675352 224.393725,46.6049296 Z" id="Fill-9" fill="#FFFFFF"></path>
                    <path d="M280.777003,14 C281.108798,14 281.395296,14.1236301 281.637631,14.369735 C281.878833,14.6169952 282,14.9254928 282,15.2940723 C282,15.6337663 281.893554,15.926088 281.682927,16.1721929 L270.358885,31.0551801 L270.358885,45.5199048 C270.358885,45.9520325 270.237718,46.3055915 269.995383,46.5828928 C269.754181,46.860194 269.422387,47 269,47 C268.576481,47 268.23676,46.860194 267.980836,46.5828928 C267.72378,46.3055915 267.594686,45.9520325 267.594686,45.5199048 L267.594686,30.9627464 L256.315941,16.1721929 C256.105314,15.926088 256,15.6337663 256,15.2940723 C256,14.9555338 256.120035,14.6551241 256.361237,14.3939988 C256.603571,14.1317181 256.89007,14 257.222997,14 C257.614808,14 257.947735,14.1848675 258.219512,14.5546024 L269,28.7905536 L279.780488,14.5546024 C280.051132,14.1848675 280.384059,14 280.777003,14" id="Fill-11" fill="#FFFFFF"></path>
                    <path d="M49.2455991,21 C48.8424658,21 48.445305,20.7960358 48.2064112,20.4191679 C47.8271674,19.8228054 47.9854345,19.0204081 48.5587795,18.6259392 L52.0695224,16.2135704 C52.6458536,15.8211722 53.4142952,15.9847577 53.7935391,16.5790494 C54.1727829,17.1764472 54.0145158,17.9788445 53.4421662,18.3733134 L49.9304279,20.7856823 C49.719405,20.9306315 49.4805113,21 49.2455991,21" id="Fill-13" fill="#FFFFFF"></path>
                    <path d="M44.2631743,10 C43.9738912,10 43.6825852,9.89045502 43.4438761,9.66577602 C42.9128496,9.16611675 42.8491264,8.28416785 43.3022691,7.69620192 L45.7733127,4.49145223 C46.2254439,3.90460411 47.023501,3.83194672 47.5555391,4.3349594 C48.0865657,4.83461866 48.1513003,5.71656757 47.6981577,6.30341569 L45.2261025,9.50928318 C44.9762671,9.83344691 44.6212379,10 44.2631743,10" id="Fill-15" fill="#FFFFFF"></path>
                    <g id="Group-19" transform="translate(31.000000, 0.000000)">
                        <mask id="mask-2" fill="white">
                            <use xlink:href="#path-1"></use>
                        </mask>
                        <g id="Clip-18"></g>
                        <path d="M1.5787,7.15477778 C1.4117,7.15477778 1.2407,7.11811111 1.0777,7.03811111 C0.4457,6.73033333 0.1577,5.91144444 0.4347,5.20811111 L2.1327,0.905888889 C2.4087,0.204777778 3.1447,-0.119666667 3.7787,0.191444444 C4.4107,0.499222222 4.6987,1.31811111 4.4217,2.02144444 L2.7247,6.32366667 C2.5187,6.84477778 2.0597,7.15477778 1.5787,7.15477778" id="Fill-17" fill="#FFFFFF" mask="url(#mask-2)"></path>
                    </g>
                    <g id="Group-22" transform="translate(0.000000, 5.000000)">
                        <mask id="mask-4" fill="white">
                            <use xlink:href="#path-3"></use>
                        </mask>
                        <g id="Clip-21"></g>
                        <path d="M25.3674735,51 C19.8729056,51 14.5514858,49.2223457 10.0923438,45.8448025 C4.67626975,41.7446543 1.17983148,35.7779691 0.24367716,29.0436605 C-0.685551235,22.3185864 1.0597821,15.6327593 5.15877593,10.2155309 C9.25776975,4.79714815 15.2186833,1.30070988 21.9414488,0.371481481 C22.6248068,0.279135802 23.323171,0.214493827 24.0838685,0.175246914 C24.9103623,0.131382716 25.5590907,0.745481481 25.599492,1.53965432 C25.6410475,2.3361358 25.0304117,3.01487654 24.2350846,3.0564321 C23.5551895,3.09221605 22.9330105,3.14877778 22.3327636,3.22958025 C10.0288562,4.93104938 1.40030679,16.3345864 3.10293025,28.6488827 C3.93173272,34.6190309 7.03223889,39.9104383 11.8330599,43.5442407 C16.6350352,47.1780432 22.5543932,48.723679 28.5199241,47.8948765 C40.5491031,46.2326543 49.0460599,35.4743827 47.8640352,23.4001852 C47.7866957,22.6060123 48.3673191,21.9007222 49.1591833,21.8233827 C49.9510475,21.7471975 50.6586463,22.324358 50.7371401,23.1185309 C52.0692265,36.7406728 42.4848994,48.8795123 28.9158562,50.7529753 C27.7303685,50.9180432 26.5448809,51 25.3674735,51" id="Fill-20" fill="#FFFFFF" mask="url(#mask-4)"></path>
                    </g>
                </g>
            </g>
        </g>
    </g>
</svg>