<?xml version="1.0" encoding="UTF-8"?>
<svg width="20px" height="23px" viewBox="0 0 20 23" version="1.1" xmlns="http://www.w3.org/2000/svg" xmlns:xlink="http://www.w3.org/1999/xlink">
    <!-- Generator: Sketch 52.5 (67469) - http://www.bohemiancoding.com/sketch -->
    <title>icon/medal/white</title>
    <desc>Created with Sketch.</desc>
    <g id="Export-Symbols-and-Components" stroke="none" stroke-width="1" fill="none" fill-rule="evenodd">
        <g id="Symbols-and-Components" transform="translate(-108.000000, -3471.000000)">
            <g id="icon/medal/white" transform="translate(106.000000, 3471.000000)">
                <polygon id="Star" stroke="#FFFFFF" stroke-width="1" stroke-linejoin="round" points="12 10.5 9.06107374 12.045085 9.62235871 8.77254249 7.24471742 6.45491503 10.5305369 5.97745751 12 3 13.4694631 5.97745751 16.7552826 6.45491503 14.3776413 8.77254249 14.9389263 12.045085"></polygon>
                <path d="M7.33154026,22.7466422 L5.7117773,19.9852171 L2.55504897,20.2804607 C2.16979585,20.3164928 1.88023636,19.9143555 2.04931344,19.5781003 L5.85976159,12 L6.73693851,12.452901 L3.32203966,19.2443451 L5.89905182,19.0033214 C6.09377814,18.985109 6.28570514,19.0842041 6.38562203,19.2545457 L7.70792424,21.50885 L11.1228231,14.7174058 L12,15.1703068 L8.18955185,22.748407 C8.02047477,23.0846622 7.5292192,23.0836518 7.33154026,22.7466422 Z" id="Path" fill="#FFFFFF" fill-rule="nonzero"></path>
                <path d="M12,15.5 C7.85786438,15.5 4.5,12.1421356 4.5,8 C4.5,3.85786438 7.85786438,0.5 12,0.5 C16.1421356,0.5 19.5,3.85786438 19.5,8 C19.5,12.1421356 16.1421356,15.5 12,15.5 Z M12,14.5 C15.5898509,14.5 18.5,11.5898509 18.5,8 C18.5,4.41014913 15.5898509,1.5 12,1.5 C8.41014913,1.5 5.5,4.41014913 5.5,8 C5.5,11.5898509 8.41014913,14.5 12,14.5 Z" id="Oval" fill="#FFFFFF" fill-rule="nonzero"></path>
                <path d="M16.6684597,22.7466422 C16.4707808,23.0836518 15.9795252,23.0846622 15.8104482,22.748407 L12,15.1703068 L12.8771769,14.7174058 L16.2920758,21.50885 L17.614378,19.2545457 C17.7142949,19.0842041 17.9062219,18.985109 18.1009482,19.0033214 L20.6779603,19.2443451 L17.2630615,12.452901 L18.1402384,12 L21.9506866,19.5781003 C22.1197636,19.9143555 21.8302041,20.3164928 21.444951,20.2804607 L18.2882227,19.9852171 L16.6684597,22.7466422 Z" id="Path" fill="#FFFFFF" fill-rule="nonzero"></path>
            </g>
        </g>
    </g>
</svg>